# xmcd
#
# Track frame offsets: 
#        150
#        20465
#        35050
#        59595
#        80323
#        99959
#        124645
#        150547
#        172919
#        184098
#        207114
#        225341
#        242044
#        255883
#        278123
#        303009
#
# Disc length: 4493 seconds
#
# Revision: 0
# Processed by: cddbd v1.5.2PL0 Copyright (c) Steve Scherf et al.
# Submitted via: ExactAudioCopy v0.95b4
#
DISCID=bb118b10
DTITLE=Various Artist - The Best Blues ...Ever!
DYEAR=2012
DGENRE=Blues
TTITLE0=Tadeusz Nalepa - To mój blues
TTITLE1=Breakout (Mira Kubasinska) - Czarno - czarny film
TTITLE2=D¿em - Skazany na bluesa
TTITLE3=El¿bieta Mielczarek - Poczekalnia PKP
TTITLE4=Breakout - Jest gdzies taki dom
TTITLE5=Ireneusz Dudek - Something Must Have Changed
TTITLE6=Krzak - Kim jestes - listonoszem?
TTITLE7=Jan Kyks Skrzek I Slaska Grupa Bluesowa - Przy ulicy Mariackie
TTITLE7=j
TTITLE8=Leszek Winder - Blues Okularnika
TTITLE9=Ireneusz Dudek - Dudie Boogie
TTITLE10=Martyna Jakubowicz - Blues 4 AM (Blues 4 rano)
TTITLE11=S³awek Wierzcholski - Polski blues
TTITLE12=Magda Piskorczyk - Darkness On The Delta
TTITLE13=Leszek Cichoñski, Marek Raduli - Thanks Jimi
TTITLE14=J.J. Band - Rzeka dzieciñstwa
TTITLE15=Breakout - Modlitwa
EXTD=
EXTT0=
EXTT1=
EXTT2=
EXTT3=
EXTT4=
EXTT5=
EXTT6=
EXTT7=
EXTT8=
EXTT9=
EXTT10=
EXTT11=
EXTT12=
EXTT13=
EXTT14=
EXTT15=
PLAYORDER=
